<svg width="50.000000" height="50.000000" viewBox="0 0 50 50" fill="none" xmlns="http://www.w3.org/2000/svg" xmlns:xlink="http://www.w3.org/1999/xlink">
	<desc>
			Created with Pixso.
	</desc>
	<defs/>
	<path id="Clock.png" d="M22.65 11.71C22.65 10.44 23.63 9.37 25 9.37C26.26 9.37 27.34 10.44 27.34 11.71L27.34 23.82L35.64 29.29C36.71 30.07 37.01 31.54 36.23 32.61C35.54 33.69 34.08 33.98 33 33.2L23.63 26.95C23.04 26.56 22.65 25.78 22.65 25L22.65 11.71ZM25 0C38.76 0 50 11.23 50 25C50 38.86 38.76 50 25 50C11.13 50 0 38.86 0 25C0 11.23 11.13 0 25 0ZM4.68 25C4.68 36.23 13.76 45.31 25 45.31C36.13 45.31 45.31 36.23 45.31 25C45.31 13.86 36.13 4.68 25 4.68C13.76 4.68 4.68 13.86 4.68 25Z" fill="#C6C9A5" fill-opacity="1.000000" fill-rule="nonzero"/>
</svg>
