<svg width="62.500000" height="50.000000" viewBox="0 0 62.5 50" fill="none" xmlns="http://www.w3.org/2000/svg" xmlns:xlink="http://www.w3.org/1999/xlink">
	<desc>
			Created with Pixso.
	</desc>
	<defs/>
	<path id="Shipping.png" d="M34.37 4.68L12.5 4.68C11.62 4.68 10.93 5.46 10.93 6.25L10.93 9.37L23.43 9.37C24.21 9.37 25 10.15 25 10.93C25 11.81 24.21 12.5 23.43 12.5L1.56 12.5C0.68 12.5 0 11.81 0 10.93C0 10.15 0.68 9.37 1.56 9.37L6.25 9.37L6.25 6.25C6.25 2.83 8.98 0 12.5 0L34.37 0C37.79 0 40.62 2.83 40.62 6.25L40.62 9.37L44.72 9.37C46.19 9.37 47.55 9.96 48.63 11.03L57.71 20.11C58.78 21.19 59.37 22.55 59.37 24.02L59.37 35.93L60.15 35.93C61.42 35.93 62.5 37.01 62.5 38.28C62.5 39.64 61.42 40.62 60.15 40.62L56.25 40.62C56.25 45.8 52.05 50 46.87 50C41.69 50 37.5 45.8 37.5 40.62L25 40.62C25 45.8 20.8 50 15.62 50C10.44 50 6.25 45.8 6.25 40.62L6.25 28.12L10.93 28.12L10.93 32.51C12.3 31.73 13.86 31.25 15.62 31.25C19.04 31.25 22.07 33.2 23.73 35.93L34.37 35.93C35.15 35.93 35.93 35.25 35.93 34.37L35.93 6.25C35.93 5.46 35.15 4.68 34.37 4.68ZM54.39 23.43L45.31 14.35C45.11 14.16 44.92 14.06 44.72 14.06L40.62 14.06L40.62 23.43L54.49 23.43L54.39 23.43ZM20.31 40.62C20.31 38.96 19.33 37.5 17.96 36.62C16.5 35.74 14.64 35.74 13.28 36.62C11.81 37.5 10.93 38.96 10.93 40.62C10.93 42.38 11.81 43.84 13.28 44.72C14.64 45.6 16.5 45.6 17.96 44.72C19.33 43.84 20.31 42.38 20.31 40.62ZM46.87 45.31C48.53 45.31 50 44.43 50.87 42.96C51.75 41.6 51.75 39.74 50.87 38.28C50 36.91 48.53 35.93 46.87 35.93C45.11 35.93 43.65 36.91 42.77 38.28C41.89 39.74 41.89 41.6 42.77 42.96C43.65 44.43 45.11 45.31 46.87 45.31ZM4.68 15.62L26.56 15.62C27.34 15.62 28.12 16.4 28.12 17.18C28.12 18.06 27.34 18.75 26.56 18.75L4.68 18.75C3.8 18.75 3.12 18.06 3.12 17.18C3.12 16.4 3.8 15.62 4.68 15.62ZM1.56 21.87L23.43 21.87C24.21 21.87 25 22.65 25 23.43C25 24.31 24.21 25 23.43 25L1.56 25C0.68 25 0 24.31 0 23.43C0 22.65 0.68 21.87 1.56 21.87Z" fill="#B7D1D1" fill-opacity="1.000000" fill-rule="nonzero"/>
</svg>
