<svg width="50.000000" height="43.750000" viewBox="0 0 50 43.75" fill="none" xmlns="http://www.w3.org/2000/svg" xmlns:xlink="http://www.w3.org/1999/xlink">
	<desc>
			Created with Pixso.
	</desc>
	<defs/>
	<path id="wallet.png" d="M8.59 0L44.53 0C45.8 0 46.87 1.07 46.87 2.34C46.87 3.71 45.8 4.68 44.53 4.68L8.59 4.68C6.34 4.68 4.68 6.44 4.68 8.59L4.68 35.15C4.68 37.4 6.34 39.06 8.59 39.06L41.4 39.06C43.55 39.06 45.31 37.4 45.31 35.15L45.31 17.96C45.31 15.82 43.55 14.06 41.4 14.06L11.71 14.06C10.35 14.06 9.37 13.08 9.37 11.71C9.37 10.44 10.35 9.37 11.71 9.37L41.4 9.37C46.09 9.37 50 13.28 50 17.96L50 35.15C50 39.94 46.09 43.75 41.4 43.75L8.59 43.75C3.8 43.75 0 39.94 0 35.15L0 8.59C0 3.9 3.8 0 8.59 0ZM37.5 29.68C35.74 29.68 34.37 28.32 34.37 26.56C34.37 24.9 35.74 23.43 37.5 23.43C39.16 23.43 40.62 24.9 40.62 26.56C40.62 28.32 39.16 29.68 37.5 29.68Z" fill="#D0C9B2" fill-opacity="1.000000" fill-rule="nonzero"/>
</svg>
