<svg width="192.000000" height="23.000000" viewBox="0 0 192 23" fill="none" xmlns="http://www.w3.org/2000/svg" xmlns:xlink="http://www.w3.org/1999/xlink">
	<path id="HOUSEDECOR" d="M162.66 0C168.68 0 173.63 4.32 173.63 11.34C173.63 18.33 168.68 22.68 162.66 22.68C156.65 22.68 151.7 18.33 151.7 11.34C151.7 4.32 156.65 0 162.66 0ZM148.34 19.27C149.28 18.43 149.99 17.56 150.22 16.97L150.4 16.53C150.31 16.81 150.28 17.15 149.57 18.43C149.25 19.05 148.84 19.61 148.39 20.14C147.45 21.13 145.74 22.28 143.8 22.56C140.32 23.06 137.16 21.91 135.16 19.79C133.15 17.68 132 14.79 131.92 11.87C131.91 11.74 131.91 11.62 131.91 11.5C131.91 8.11 133.07 5.24 134.92 3.44C136.81 1.58 139.26 0.49 142 0.27C143.32 0.18 144.62 0.24 145.92 0.52C147.36 0.83 148.75 1.46 149.25 1.83C149.57 2.05 150.08 2.42 150.55 2.82L148.54 4.75C147.54 3.32 146.33 2.23 144.86 1.52C142.5 0.37 140.35 0.43 138.28 1.7C137.05 2.48 136.07 3.72 135.45 5.4C134.95 6.78 134.7 8.29 134.7 9.93C134.7 10.32 134.72 10.72 134.75 11.12C134.95 13.98 135.89 16.28 137.61 18.02C139.32 19.79 141.38 20.66 143.77 20.7C145.68 20.7 147.39 20.04 148.34 19.27ZM28.58 22.87C27.18 22.87 25.87 22.58 24.64 22C23.41 21.41 22.33 20.6 21.4 19.56C20.47 18.52 19.73 17.33 19.2 15.97Q19.14 15.8 19.08 15.63L19.07 15.62Q18.41 13.72 18.41 11.59C18.41 10.03 18.67 8.58 19.2 7.22C19.73 5.85 20.47 4.65 21.4 3.62Q22.34 2.58 23.47 1.84L23.47 1.84Q24.03 1.48 24.64 1.19C25.87 0.6 27.18 0.31 28.58 0.31C29.98 0.31 31.3 0.6 32.53 1.19C33.76 1.77 34.84 2.58 35.77 3.62C36.7 4.65 37.43 5.85 37.95 7.22Q37.99 7.31 38.02 7.41Q38.75 9.36 38.75 11.59Q38.75 13.72 38.08 15.62Q38.02 15.8 37.95 15.97C37.43 17.33 36.7 18.52 35.77 19.56C34.84 20.6 33.76 21.41 32.53 22C31.3 22.58 29.98 22.87 28.58 22.87ZM68.7 22.87C67.57 22.87 66.49 22.68 65.44 22.31C64.4 21.94 63.49 21.4 62.72 20.71C61.94 20.01 61.39 19.17 61.05 18.21L63.93 17.07C64.09 17.57 64.41 18.02 64.88 18.41C65.37 18.79 65.94 19.09 66.59 19.31C67.26 19.53 67.96 19.64 68.7 19.64C69.49 19.64 70.22 19.5 70.91 19.23C71.61 18.96 72.17 18.59 72.59 18.12C73.03 17.64 73.24 17.08 73.24 16.44C73.24 15.77 73.02 15.23 72.56 14.81C72.12 14.38 71.55 14.04 70.85 13.8C70.17 13.55 69.45 13.36 68.7 13.24C67.26 12.99 65.96 12.62 64.81 12.15C63.67 11.67 62.77 11 62.1 10.14C61.44 9.28 61.11 8.16 61.11 6.79C61.11 5.49 61.46 4.36 62.16 3.4C62.86 2.43 63.79 1.69 64.94 1.16C66.1 0.62 67.36 0.35 68.7 0.35C69.81 0.35 70.88 0.54 71.91 0.91C72.96 1.27 73.87 1.81 74.66 2.51C75.45 3.21 76.02 4.05 76.37 5.05L73.46 6.15C73.3 5.64 72.98 5.2 72.5 4.83C72.03 4.44 71.46 4.14 70.79 3.93C70.14 3.71 69.44 3.6 68.7 3.6C67.92 3.59 67.18 3.72 66.49 4Q65.47 4.41 64.82 5.12C64.39 5.6 64.18 6.15 64.18 6.79C64.18 7.56 64.38 8.15 64.78 8.56Q65.38 9.16 66.4 9.46C67.09 9.65 67.86 9.82 68.7 9.97Q70.74 10.31 72.46 11.11C73.62 11.63 74.55 12.34 75.25 13.22C75.95 14.09 76.31 15.16 76.31 16.44C76.31 17.72 75.95 18.85 75.25 19.82C74.55 20.79 73.62 21.54 72.46 22.08Q72.24 22.18 72.01 22.27L72.01 22.27Q70.47 22.87 68.7 22.87ZM163.84 22.19C168.23 22.19 171.12 18.46 171.12 13.05C171.12 6.71 167.08 0.49 161.48 0.49C157.09 0.49 154.2 4.22 154.2 9.57C154.2 15.94 158.24 22.19 163.84 22.19ZM103.27 0.68C110.05 0.68 114.15 4.44 114.15 10.9C114.15 18.21 108.87 22.25 102.68 22.25L94.39 22.25L94.39 22.19C95.45 22.09 96.25 21.16 96.25 20.01L96.25 2.89C96.25 1.77 95.45 0.83 94.39 0.71L94.39 0.68L103.27 0.68ZM124.11 21.97C126.97 21.97 129.57 20.29 130.87 17.65L129.83 23L128.86 22.25L115.09 22.25L115.09 22.19C116.13 22.09 116.95 21.16 116.95 20.04L116.95 2.89C116.95 1.77 116.13 0.83 115.09 0.71L115.09 0.68L129.98 0.68L130.87 5.28C129.57 2.61 126.97 0.93 124.11 0.93L119.34 0.93L119.34 11.34L124.14 11.34C125.56 11.34 126.83 10.41 127.36 9.04L127.42 9.04L127.42 13.89L127.36 13.89C126.83 12.49 125.56 11.59 124.14 11.59L119.34 11.59L119.34 21.97L124.11 21.97ZM179.02 13.55C182.09 16.9 186.39 18.99 191.17 18.99C191.44 18.99 191.73 18.99 192 18.95L188.93 21.91C184.45 20.91 180.73 17.74 178.82 13.48L178.79 13.48L178.79 20.04C178.82 21.16 179.61 22.09 180.67 22.19L180.67 22.25L174.54 22.25L174.54 22.19C175.57 22.09 176.4 21.16 176.4 20.04L176.4 2.85C176.4 1.74 175.57 0.83 174.54 0.71L174.54 0.68L184.3 0.68C188.69 0.68 192 2.67 192 6.65C192 11 188.55 14.35 183.24 14.2C181.21 14.14 179.67 13.73 179.02 13.55ZM12.39 0.71L15.46 0.71L15.46 22.47L12.39 22.47L12.39 12.43L3.06 12.43L3.06 22.47L0 22.47L0 0.71L3.06 0.71L3.06 9.19L12.39 9.19L12.39 0.71ZM49.65 22.87C48 22.87 46.56 22.45 45.33 21.6C44.11 20.75 43.16 19.61 42.48 18.18Q41.48 16.02 41.48 13.39L41.48 0.71L44.55 0.71L44.55 13.39C44.55 14.53 44.74 15.58 45.14 16.53C45.54 17.47 46.12 18.23 46.88 18.8C47.64 19.36 48.57 19.64 49.65 19.64C50.76 19.64 51.69 19.36 52.45 18.8Q52.73 18.58 52.98 18.33L52.98 18.33Q53.73 17.59 54.16 16.53C54.55 15.58 54.75 14.53 54.75 13.39L54.75 0.71L57.81 0.71L57.81 13.39C57.81 14.71 57.62 15.94 57.24 17.09C56.86 18.23 56.3 19.23 55.59 20.1C54.87 20.97 54.01 21.65 53.01 22.14C52.01 22.63 50.89 22.87 49.65 22.87ZM79.71 22.47L79.71 0.71L92.52 0.71L92.52 3.94L82.78 3.94L82.78 9.19L90.62 9.19L90.62 12.43L82.78 12.43L82.78 19.23L92.52 19.23L92.52 22.47L79.71 22.47ZM102.97 21.78C108.13 21.78 111.43 19.67 111.43 12.37C111.43 5.9 108.81 0.96 102.09 0.96L98.64 0.96L98.64 20.76C99.7 21.35 101.17 21.78 102.97 21.78ZM182.77 0.99L178.79 0.99L178.79 13.3C179.79 13.55 181.38 13.8 181.44 13.8L181.59 13.8C181.62 13.8 181.68 13.83 181.71 13.83C182.18 13.86 182.65 13.89 183.09 13.92L183.42 13.92C187.66 13.92 189.37 11.31 189.37 7.73C189.37 4.41 188.55 0.99 182.77 0.99ZM28.58 19.64C29.56 19.64 30.48 19.43 31.33 19C32.19 18.58 32.94 18 33.59 17.26C34.25 16.51 34.76 15.66 35.12 14.7C35.5 13.72 35.68 12.69 35.68 11.59C35.68 10.49 35.5 9.45 35.12 8.48C34.76 7.51 34.25 6.65 33.59 5.92Q32.87 5.08 31.97 4.53L31.97 4.53Q31.66 4.33 31.33 4.18C30.48 3.75 29.56 3.54 28.58 3.54C27.59 3.54 26.68 3.75 25.82 4.18C24.97 4.6 24.21 5.19 23.55 5.93C22.9 6.67 22.39 7.52 22.02 8.5Q22.01 8.52 22 8.53L22 8.54Q21.47 9.97 21.47 11.59C21.47 12.7 21.65 13.74 22.02 14.71C22.39 15.68 22.9 16.53 23.55 17.28C24.21 18.01 24.97 18.59 25.82 19.02C26.68 19.43 27.59 19.64 28.58 19.64Z" fill="#FFFFFF" fill-opacity="1.000000" fill-rule="evenodd"/>
</svg>
